<svg width="160" height="59" viewBox="0 0 160 59" fill="none" xmlns="http://www.w3.org/2000/svg">
<rect width="160" height="59" rx="8" fill="#353945"/>
<path fill-rule="evenodd" clip-rule="evenodd" d="M74.8819 21.7349C74.8819 22.6891 74.1301 23.4988 73.147 23.5277C72.1639 23.5277 71.3542 22.747 71.3542 21.7638C71.3542 20.8096 72.1349 20.0289 73.0892 20C74.0434 20 74.853 20.7518 74.8819 21.7349ZM43.7681 37.3493H39.4308C38.2739 37.3493 38.1856 36.5321 38.0958 35.7004L38.0958 35.7004L38.0958 35.7004L38.0958 35.7004L38.0958 35.7003L38.0957 35.7003L38.0957 35.7003L38.0957 35.7003C38.08 35.555 38.0643 35.4093 38.0428 35.2674V29.0795C38.0428 29.0795 38.997 29.0506 40.0669 29.0506C40.239 29.0506 40.4179 29.0469 40.6023 29.0431L40.6024 29.0431H40.6025H40.6025H40.6026H40.6027H40.6027H40.6028C41.6883 29.0209 42.9662 28.9947 44.2018 29.6867C43.45 28.0964 41.8307 27.1132 40.0669 27.1711H38.0717V25.1759C38.0717 25.1759 38.0717 23.441 37.638 22.9494H40.5006L40.6575 22.9494C43.0401 22.9488 44.9095 22.9483 46.862 24.2217C46.862 24.2217 46.4861 20.9542 41.7151 20.9542H32.4043C32.4043 20.9542 34.0236 22.3422 33.9657 25.147L34.0236 36.424C34.0236 39.2577 35.1513 39.3445 35.1513 39.3445H44.3175C46.3994 39.3445 47.1223 37.8698 47.1223 37.0601L47.1512 35.9903C47.1512 35.9903 46.4861 37.3493 43.7681 37.3493ZM68.1734 36.3952V28.5013C68.1734 25.4362 65.6867 24.6266 63.8072 24.6266C61.4742 24.6266 60.6783 26.4763 60.3315 27.2825C60.3129 27.3256 60.2956 27.3658 60.2795 27.4025C59.7301 25.4941 57.7928 24.6266 56.2313 24.6266C53.253 24.6266 52.5012 27.4603 52.5012 27.4603C52.5012 27.4603 52.4434 24.7133 50.0434 24.7133H47.7013C47.7013 24.7133 49.0603 25.2627 49.0603 27.6338V36.3952C49.0603 39.2867 50.2169 39.3446 50.2169 39.3446H54.0916C53.1663 38.6506 52.6169 37.5518 52.6169 36.3663V28.588C52.6747 28.241 53.253 27.0844 54.9012 27.0844C55.8554 27.0844 56.8964 28.0675 56.8675 29.1663V36.3952C56.8675 39.3156 58.0241 39.3446 58.0241 39.3446H61.8988C60.9735 38.6217 60.4241 37.5518 60.4241 36.3663V28.588C60.8 27.4603 62.0144 26.8242 63.171 27.2001C64.0385 27.4892 64.6457 28.2699 64.6746 29.1952V36.3952C64.7036 39.3446 65.8313 39.3156 65.8313 39.3156H69.7059C68.7517 38.6217 68.2023 37.5518 68.1734 36.3952ZM76.413 39.3445C75.4877 38.6505 74.9383 37.5517 74.9383 36.3951L74.9094 36.3373V27.9518C74.9094 24.6843 73.2034 24.6843 72.3649 24.6843H70.0227C70.0227 24.6843 71.3528 25.2916 71.3528 27.6048V36.424C71.3528 39.3734 72.5383 39.3445 72.5383 39.3445H76.413ZM86.8532 25.812C86.8532 25.812 86.4773 24.771 84.8869 24.771C82.458 24.771 81.8797 27.6626 81.8797 27.6626C81.6773 25.3783 81.0701 24.7132 79.3641 24.7132H77.0219C77.0219 24.7132 78.381 25.2626 78.381 27.6337V36.3951C78.381 39.2866 79.5376 39.3444 79.5376 39.3444H83.4122C82.4869 38.6505 81.9376 37.5517 81.9376 36.3951V29.1951C82.0243 28.5879 82.3713 28.0385 82.8918 27.7204C84.193 26.853 85.899 27.1132 86.911 28.2987L86.8532 25.812ZM107.15 26.9109C106.456 26.535 105.676 26.3326 104.866 26.3326H103.883V36.482C103.912 37.6097 104.461 38.6795 105.386 39.3446H101.541C101.541 39.3446 100.355 39.3446 100.355 36.5109V26.3326L97.8973 26.3037C97.8973 26.3037 100.211 25.176 101.309 24.2796C102.321 23.4411 103.218 22.458 103.912 21.3592V24.7134H107.15V26.9109ZM116.606 30.7564C115.474 31.9338 114.468 32.402 113.572 32.8192C112.751 33.2012 112.022 33.5404 111.373 34.342C111.373 34.342 111.604 36.5974 113.31 37.3781C113.888 37.6383 116.288 38.5058 117.821 35.8456V38.2166C117.821 38.2166 116.838 39.3732 113.686 39.3732C109.898 39.3732 107.296 36.395 107.296 32.3468C107.296 28.3565 109.406 24.6842 113.426 24.6553C117.329 24.5974 119.469 27.7782 116.606 30.7564ZM114.235 29.8311C114.871 28.6456 115.392 25.6384 113.194 25.8119C110.65 26.0143 111.141 32.7516 111.141 32.7516C111.445 32.4166 111.805 32.1763 112.188 31.9211C112.863 31.4713 113.608 30.9748 114.235 29.8311ZM90.871 37.6675C90.0035 37.6675 89.3674 36.7422 89.3674 35.8169C89.3674 33.1292 90.9882 32.1409 92.1635 31.4244C92.5814 31.1696 92.9429 30.9491 93.1553 30.6989V36.8578C93.1026 36.8984 93.0504 36.9435 92.9954 36.9911C92.6581 37.2828 92.2134 37.6675 90.871 37.6675ZM93.1553 29.282C92.8777 29.7656 92.0149 30.1327 90.9877 30.5697C88.6984 31.5437 85.5927 32.8651 86.3312 36.5976C86.765 38.7374 88.1818 39.3735 89.9746 39.3735C91.7095 39.3735 92.7794 38.4771 93.2131 37.6096C93.4734 39.2289 94.3119 39.3446 94.3119 39.3446H98.1866C97.2613 38.6506 96.683 37.5807 96.683 36.4241V28.1832C96.683 26.217 94.5143 24.6844 92.2011 24.6844C90.8999 24.6555 89.6565 25.0314 88.5867 25.7543V28.2989C88.5867 28.2989 89.3963 26.2748 91.3915 26.2748C93.3577 26.2748 93.5023 27.2579 93.5023 27.7495C93.5312 28.27 93.4445 28.8193 93.1553 29.282ZM122.302 37.7542C124.269 37.7542 125.194 36.3952 125.165 35.3542C125.136 34.6313 124.731 33.8795 123.633 33.2723C122.939 32.8964 122.274 32.4916 121.637 32.029C120.221 30.9591 119.498 29.8603 119.469 28.1254C119.411 26.1591 121.522 24.6266 123.835 24.6266C125.165 24.6266 126.466 25.0314 127.536 25.7832V28.241C127.536 28.241 126.698 26.217 124.789 26.217C122.852 26.217 122.592 27.2001 122.621 27.6916C122.621 27.9519 122.996 28.7615 123.719 29.1952C123.924 29.3206 124.137 29.4474 124.354 29.5769C125.493 30.2541 126.755 31.0048 127.507 32C128.057 32.7229 128.375 33.6193 128.404 34.5446C128.461 37.3494 125.772 39.3446 123.141 39.3446C121.84 39.3446 120.568 38.9976 119.469 38.3036V35.7012C119.469 35.7012 120.278 37.7542 122.302 37.7542Z" fill="white"/>
</svg>
