<svg width="16" height="16" viewBox="0 0 16 16" fill="none" xmlns="http://www.w3.org/2000/svg">
<path fill-rule="evenodd" clip-rule="evenodd" d="M7.99992 13.3333C10.9454 13.3333 13.3333 10.9455 13.3333 8C13.3333 5.05448 10.9454 2.66667 7.99992 2.66667C5.0544 2.66667 2.66659 5.05448 2.66659 8C2.66659 10.9455 5.0544 13.3333 7.99992 13.3333ZM7.99992 14.6667C11.6818 14.6667 14.6666 11.6819 14.6666 8C14.6666 4.3181 11.6818 1.33333 7.99992 1.33333C4.31802 1.33333 1.33325 4.3181 1.33325 8C1.33325 11.6819 4.31802 14.6667 7.99992 14.6667Z" fill="#777E91"/>
<path fill-rule="evenodd" clip-rule="evenodd" d="M9.16453 12.1178C9.657 11.1328 10.0001 9.67884 10.0001 8C10.0001 6.32116 9.657 4.86718 9.16453 3.88224C8.63219 2.81755 8.14345 2.66667 8.00008 2.66667C7.85671 2.66667 7.36797 2.81755 6.83563 3.88224C6.34316 4.86718 6.00008 6.32116 6.00008 8C6.00008 9.67884 6.34316 11.1328 6.83563 12.1178C7.36797 13.1824 7.85671 13.3333 8.00008 13.3333C8.14345 13.3333 8.63219 13.1824 9.16453 12.1178ZM8.00008 14.6667C9.84103 14.6667 11.3334 11.6819 11.3334 8C11.3334 4.3181 9.84103 1.33333 8.00008 1.33333C6.15913 1.33333 4.66675 4.3181 4.66675 8C4.66675 11.6819 6.15913 14.6667 8.00008 14.6667Z" fill="#777E91"/>
<path fill-rule="evenodd" clip-rule="evenodd" d="M14.6337 8.66667C14.6554 8.44739 14.6666 8.225 14.6666 8C14.6666 7.775 14.6554 7.5526 14.6337 7.33333H1.36617C1.3444 7.5526 1.33325 7.775 1.33325 8C1.33325 8.225 1.3444 8.44739 1.36617 8.66667H14.6337Z" fill="#777E91"/>
</svg>
