<svg width="16" height="17" viewBox="0 0 16 17" fill="none" xmlns="http://www.w3.org/2000/svg">
<g id="icons/Loading/Line">
<g id="Shape">
<path d="M8.00004 1.83325C7.63185 1.83325 7.33337 2.13173 7.33337 2.49992V4.49992C7.33337 4.86811 7.63185 5.16659 8.00004 5.16659C8.36823 5.16659 8.66671 4.86811 8.66671 4.49992V2.49992C8.66671 2.13173 8.36823 1.83325 8.00004 1.83325Z" fill="#353945"/>
<path d="M8.00004 11.8333C7.63185 11.8333 7.33337 12.1317 7.33337 12.4999V14.4999C7.33337 14.8681 7.63185 15.1666 8.00004 15.1666C8.36823 15.1666 8.66671 14.8681 8.66671 14.4999V12.4999C8.66671 12.1317 8.36823 11.8333 8.00004 11.8333Z" fill="#353945"/>
<path d="M14 7.83325C14.3682 7.83325 14.6667 8.13173 14.6667 8.49992C14.6667 8.86811 14.3682 9.16659 14 9.16659H12C11.6319 9.16659 11.3334 8.86811 11.3334 8.49992C11.3334 8.13173 11.6319 7.83325 12 7.83325H14Z" fill="#353945"/>
<path d="M4.66671 8.49992C4.66671 8.13173 4.36823 7.83325 4.00004 7.83325H2.00004C1.63185 7.83325 1.33337 8.13173 1.33337 8.49992C1.33337 8.86811 1.63185 9.16659 2.00004 9.16659H4.00004C4.36823 9.16659 4.66671 8.86811 4.66671 8.49992Z" fill="#353945"/>
<path d="M11.7713 3.78594C12.0317 3.52559 12.4538 3.52559 12.7141 3.78594C12.9745 4.04629 12.9745 4.4684 12.7141 4.72875L11.2999 6.14296C11.0396 6.40331 10.6174 6.40331 10.3571 6.14296C10.0967 5.88261 10.0967 5.4605 10.3571 5.20015L11.7713 3.78594Z" fill="#353945"/>
<path d="M5.64299 10.8569C5.38265 10.5966 4.96054 10.5966 4.70019 10.8569L3.28597 12.2711C3.02562 12.5315 3.02562 12.9536 3.28597 13.2139C3.54632 13.4743 3.96843 13.4743 4.22878 13.2139L5.64299 11.7997C5.90334 11.5394 5.90334 11.1173 5.64299 10.8569Z" fill="#353945"/>
<path d="M12.7141 12.2712C12.9745 12.5315 12.9745 12.9536 12.7141 13.214C12.4538 13.4743 12.0316 13.4743 11.7713 13.214L10.3571 11.7998C10.0967 11.5394 10.0967 11.1173 10.3571 10.857C10.6174 10.5966 11.0395 10.5966 11.2999 10.857L12.7141 12.2712Z" fill="#353945"/>
<path d="M5.64306 6.14287C5.90341 5.88252 5.90341 5.46041 5.64306 5.20006L4.22884 3.78585C3.96849 3.5255 3.54638 3.5255 3.28603 3.78585C3.02568 4.0462 3.02568 4.46831 3.28603 4.72866L4.70025 6.14287C4.9606 6.40322 5.38271 6.40322 5.64306 6.14287Z" fill="#353945"/>
</g>
</g>
</svg>
