<svg width="91" height="24" viewBox="0 0 91 24" fill="none" xmlns="http://www.w3.org/2000/svg">
<path d="M5.68688 17.168C4.69754 17.168 3.84821 16.958 3.13888 16.538C2.42954 16.1087 1.88354 15.516 1.50088 14.76C1.11821 13.9947 0.926875 13.1127 0.926875 12.114C0.926875 11.1153 1.11821 10.2333 1.50088 9.468C1.88354 8.70267 2.42954 8.10533 3.13888 7.676C3.84821 7.24667 4.69754 7.032 5.68688 7.032C6.86288 7.032 7.82421 7.326 8.57088 7.914C9.32688 8.49267 9.79821 9.30933 9.98488 10.364H8.01087C7.88954 9.832 7.62821 9.41667 7.22688 9.118C6.83488 8.81 6.31221 8.656 5.65888 8.656C4.75354 8.656 4.04421 8.964 3.53088 9.58C3.01754 10.196 2.76088 11.0407 2.76088 12.114C2.76088 13.1873 3.01754 14.032 3.53088 14.648C4.04421 15.2547 4.75354 15.558 5.65888 15.558C6.31221 15.558 6.83488 15.418 7.22688 15.138C7.62821 14.8487 7.88954 14.452 8.01087 13.948H9.98488C9.79821 14.956 9.32688 15.7447 8.57088 16.314C7.82421 16.8833 6.86288 17.168 5.68688 17.168ZM14.8611 17.168C14.1891 17.168 13.5825 17.014 13.0411 16.706C12.5091 16.398 12.0845 15.9733 11.7671 15.432C11.4591 14.8813 11.3051 14.2467 11.3051 13.528C11.3051 12.8093 11.4638 12.1793 11.7811 11.638C12.0985 11.0873 12.5231 10.658 13.0551 10.35C13.5965 10.042 14.2031 9.888 14.8751 9.888C15.5378 9.888 16.1351 10.042 16.6671 10.35C17.2085 10.658 17.6331 11.0873 17.9411 11.638C18.2585 12.1793 18.4171 12.8093 18.4171 13.528C18.4171 14.2467 18.2585 14.8813 17.9411 15.432C17.6331 15.9733 17.2085 16.398 16.6671 16.706C16.1258 17.014 15.5238 17.168 14.8611 17.168ZM14.8611 15.614C15.3278 15.614 15.7338 15.4413 16.0791 15.096C16.4245 14.7413 16.5971 14.2187 16.5971 13.528C16.5971 12.8373 16.4245 12.3193 16.0791 11.974C15.7338 11.6193 15.3325 11.442 14.8751 11.442C14.3991 11.442 13.9885 11.6193 13.6431 11.974C13.3071 12.3193 13.1391 12.8373 13.1391 13.528C13.1391 14.2187 13.3071 14.7413 13.6431 15.096C13.9885 15.4413 14.3945 15.614 14.8611 15.614ZM20.0194 17V10.056H21.6014L21.7414 11.232C21.956 10.8213 22.264 10.4947 22.6654 10.252C23.076 10.0093 23.5567 9.888 24.1074 9.888C24.966 9.888 25.6334 10.1587 26.1094 10.7C26.5854 11.2413 26.8234 12.0347 26.8234 13.08V17H25.0314V13.248C25.0314 12.6507 24.91 12.1933 24.6674 11.876C24.4247 11.5587 24.0467 11.4 23.5334 11.4C23.0294 11.4 22.614 11.5773 22.2874 11.932C21.97 12.2867 21.8114 12.7813 21.8114 13.416V17H20.0194ZM28.537 17V10.056H30.119L30.259 11.232C30.4736 10.8213 30.7816 10.4947 31.183 10.252C31.5936 10.0093 32.0743 9.888 32.625 9.888C33.4836 9.888 34.151 10.1587 34.627 10.7C35.103 11.2413 35.341 12.0347 35.341 13.08V17H33.549V13.248C33.549 12.6507 33.4276 12.1933 33.185 11.876C32.9423 11.5587 32.5643 11.4 32.051 11.4C31.547 11.4 31.1316 11.5773 30.805 11.932C30.4876 12.2867 30.329 12.7813 30.329 13.416V17H28.537ZM40.4285 17.168C39.7285 17.168 39.1079 17.0187 38.5665 16.72C38.0252 16.4213 37.6005 16.0013 37.2925 15.46C36.9845 14.9187 36.8305 14.2933 36.8305 13.584C36.8305 12.8653 36.9799 12.226 37.2785 11.666C37.5865 11.106 38.0065 10.672 38.5385 10.364C39.0799 10.0467 39.7145 9.888 40.4425 9.888C41.1239 9.888 41.7259 10.0373 42.2485 10.336C42.7712 10.6347 43.1772 11.0453 43.4665 11.568C43.7652 12.0813 43.9145 12.6553 43.9145 13.29C43.9145 13.3927 43.9099 13.5 43.9005 13.612C43.9005 13.724 43.8959 13.8407 43.8865 13.962H38.6085C38.6459 14.5033 38.8325 14.928 39.1685 15.236C39.5139 15.544 39.9292 15.698 40.4145 15.698C40.7785 15.698 41.0819 15.6187 41.3245 15.46C41.5765 15.292 41.7632 15.0773 41.8845 14.816H43.7045C43.5739 15.2547 43.3545 15.656 43.0465 16.02C42.7479 16.3747 42.3745 16.6547 41.9265 16.86C41.4879 17.0653 40.9885 17.168 40.4285 17.168ZM40.4425 11.344C40.0039 11.344 39.6165 11.47 39.2805 11.722C38.9445 11.9647 38.7299 12.338 38.6365 12.842H42.0945C42.0665 12.3847 41.8985 12.0207 41.5905 11.75C41.2825 11.4793 40.8999 11.344 40.4425 11.344ZM48.8237 17.168C48.1144 17.168 47.4891 17.014 46.9477 16.706C46.4064 16.398 45.9771 15.9687 45.6597 15.418C45.3517 14.8673 45.1977 14.2373 45.1977 13.528C45.1977 12.8187 45.3517 12.1887 45.6597 11.638C45.9771 11.0873 46.4064 10.658 46.9477 10.35C47.4891 10.042 48.1144 9.888 48.8237 9.888C49.7104 9.888 50.4571 10.1213 51.0637 10.588C51.6704 11.0453 52.0577 11.68 52.2257 12.492H50.3357C50.2424 12.156 50.0557 11.8947 49.7757 11.708C49.5051 11.512 49.1831 11.414 48.8097 11.414C48.3151 11.414 47.8951 11.6007 47.5497 11.974C47.2044 12.3473 47.0317 12.8653 47.0317 13.528C47.0317 14.1907 47.2044 14.7087 47.5497 15.082C47.8951 15.4553 48.3151 15.642 48.8097 15.642C49.1831 15.642 49.5051 15.5487 49.7757 15.362C50.0557 15.1753 50.2424 14.9093 50.3357 14.564H52.2257C52.0577 15.348 51.6704 15.978 51.0637 16.454C50.4571 16.93 49.7104 17.168 48.8237 17.168ZM56.8145 17C56.0865 17 55.5032 16.8227 55.0645 16.468C54.6259 16.1133 54.4065 15.4833 54.4065 14.578V11.554H53.2165V10.056H54.4065L54.6165 8.194H56.1985V10.056H58.0745V11.554H56.1985V14.592C56.1985 14.928 56.2685 15.1613 56.4085 15.292C56.5579 15.4133 56.8099 15.474 57.1645 15.474H58.0325V17H56.8145Z" fill="#777E91"/>
<path fill-rule="evenodd" clip-rule="evenodd" d="M83.2071 9.79289C82.8166 9.40237 82.1834 9.40237 81.7929 9.79289L79 12.5858L76.2071 9.79289C75.8166 9.40237 75.1834 9.40237 74.7929 9.79289C74.4024 10.1834 74.4024 10.8166 74.7929 11.2071L78.2929 14.7071C78.6834 15.0976 79.3166 15.0976 79.7071 14.7071L83.2071 11.2071C83.5976 10.8166 83.5976 10.1834 83.2071 9.79289Z" fill="#777E91"/>
</svg>
