<svg width="1440" height="416" viewBox="0 0 1440 416" fill="none" xmlns="http://www.w3.org/2000/svg">
<path d="M165.266 316.555C165.496 316.044 165.003 315.55 164.494 315.78C164.383 315.831 164.299 315.916 164.248 316.027C164.01 316.538 164.511 317.031 165.02 316.801C165.131 316.75 165.215 316.665 165.266 316.555Z" fill="white" fill-opacity="0.1"/>
<path d="M573.825 346.129C574.055 345.618 573.561 345.124 573.05 345.354C572.94 345.405 572.854 345.49 572.803 345.601C572.574 346.112 573.067 346.605 573.578 346.376C573.689 346.325 573.774 346.239 573.825 346.129Z" fill="white" fill-opacity="0.1"/>
<path d="M485.63 297.381C485.859 296.87 485.367 296.376 484.857 296.606C484.747 296.657 484.662 296.742 484.611 296.853C484.373 297.364 484.874 297.857 485.383 297.628C485.494 297.576 485.579 297.491 485.63 297.381Z" fill="white" fill-opacity="0.1"/>
<path d="M365.838 63.1756C366.075 62.6649 365.574 62.1712 365.065 62.401C364.955 62.4521 364.87 62.5372 364.819 62.6479C364.59 63.1586 365.082 63.6523 365.591 63.4225C365.702 63.3714 365.787 63.2863 365.838 63.1756Z" fill="white" fill-opacity="0.1"/>
<path d="M439.713 50.0632C439.95 49.5538 439.449 49.0529 438.94 49.2906C438.83 49.3415 438.745 49.4264 438.694 49.5368C438.465 50.0462 438.957 50.5386 439.466 50.3094C439.577 50.2584 439.662 50.1735 439.713 50.0632Z" fill="white" fill-opacity="0.1"/>
<path d="M920.133 366.765C920.363 366.255 919.87 365.761 919.359 365.991C919.248 366.042 919.163 366.127 919.112 366.238C918.882 366.748 919.376 367.242 919.887 367.012C919.997 366.961 920.082 366.876 920.133 366.765Z" fill="white" fill-opacity="0.8"/>
<path d="M1021.33 395.91C1021.57 395.399 1021.07 394.906 1020.56 395.135C1020.45 395.186 1020.36 395.272 1020.31 395.382C1020.08 395.893 1020.57 396.387 1021.08 396.157C1021.19 396.106 1021.28 396.021 1021.33 395.91Z" fill="white" fill-opacity="0.1"/>
<path d="M1230.31 279.629C1230.55 279.118 1230.05 278.624 1229.54 278.854C1229.43 278.905 1229.34 278.99 1229.29 279.101C1229.06 279.612 1229.55 280.105 1230.06 279.876C1230.17 279.825 1230.26 279.739 1230.31 279.629Z" fill="white" fill-opacity="0.1"/>
<path d="M1278.57 94.7655C1278.81 94.2547 1278.31 93.761 1277.8 93.9908C1277.69 94.0419 1277.6 94.1271 1277.55 94.2377C1277.32 94.7485 1277.82 95.2422 1278.33 95.0123C1278.44 94.9613 1278.52 94.8761 1278.57 94.7655Z" fill="white" fill-opacity="0.1"/>
<path d="M1221.55 16.4334C1221.79 15.9227 1221.29 15.429 1220.78 15.6588C1220.67 15.7099 1220.58 15.795 1220.53 15.9057C1220.3 16.4164 1220.8 16.9101 1221.31 16.6803C1221.42 16.6292 1221.5 16.5441 1221.55 16.4334Z" fill="white" fill-opacity="0.1"/>
<path d="M1223.83 138.14C1224.06 137.63 1223.56 137.136 1223.05 137.366C1222.94 137.417 1222.86 137.502 1222.81 137.613C1222.58 138.123 1223.07 138.617 1223.58 138.387C1223.69 138.336 1223.77 138.251 1223.83 138.14Z" fill="white" fill-opacity="0.1"/>
<path d="M1403.54 157.476C1403.77 156.966 1403.28 156.472 1402.77 156.702C1402.66 156.753 1402.58 156.838 1402.52 156.949C1402.29 157.459 1402.79 157.953 1403.3 157.723C1403.41 157.672 1403.49 157.587 1403.54 157.476Z" fill="white" fill-opacity="0.1"/>
<path d="M449.231 167.713C449.46 167.202 448.968 166.708 448.459 166.938C448.348 166.989 448.263 167.074 448.212 167.185C447.975 167.696 448.476 168.189 448.985 167.96C449.095 167.909 449.18 167.823 449.231 167.713Z" fill="white" fill-opacity="0.1"/>
<path d="M737.005 337.191C737.234 336.681 736.741 336.187 736.23 336.417C736.119 336.468 736.034 336.553 735.983 336.663C735.753 337.174 736.247 337.668 736.758 337.438C736.868 337.387 736.953 337.302 737.005 337.191Z" fill="white" fill-opacity="0.1"/>
<path d="M582.74 292.879C582.978 292.368 582.477 291.874 581.967 292.104C581.857 292.155 581.772 292.24 581.721 292.351C581.492 292.862 581.984 293.355 582.494 293.126C582.604 293.075 582.689 292.989 582.74 292.879Z" fill="white" fill-opacity="0.1"/>
<path d="M293.235 360.824C293.464 360.313 292.972 359.82 292.463 360.049C292.352 360.101 292.267 360.186 292.216 360.296C291.979 360.807 292.48 361.301 292.989 361.071C293.099 361.02 293.184 360.935 293.235 360.824Z" fill="white" fill-opacity="0.1"/>
<path d="M451.509 398.615C451.738 398.104 451.245 397.611 450.736 397.84C450.626 397.892 450.541 397.977 450.49 398.087C450.252 398.598 450.753 399.092 451.262 398.862C451.373 398.811 451.458 398.726 451.509 398.615Z" fill="white" fill-opacity="0.8"/>
<path d="M112.547 254.158C112.777 253.647 112.284 253.154 111.773 253.383C111.662 253.435 111.577 253.52 111.526 253.63C111.296 254.141 111.79 254.635 112.301 254.405C112.411 254.354 112.496 254.269 112.547 254.158Z" fill="white" fill-opacity="0.8"/>
<path d="M180.361 231.578C180.599 231.067 180.098 230.574 179.588 230.803C179.478 230.854 179.393 230.94 179.342 231.05C179.113 231.561 179.605 232.055 180.115 231.825C180.225 231.774 180.31 231.689 180.361 231.578Z" fill="white" fill-opacity="0.1"/>
<path d="M189.895 99.4667C190.125 98.9559 189.631 98.4622 189.121 98.692C189.01 98.7431 188.925 98.8282 188.874 98.9389C188.644 99.4496 189.138 99.9433 189.648 99.7135C189.759 99.6624 189.844 99.5773 189.895 99.4667Z" fill="white" fill-opacity="0.1"/>
<path d="M181.934 159.75C182.164 159.239 181.671 158.745 181.162 158.975C181.051 159.026 180.967 159.111 180.916 159.222C180.678 159.733 181.179 160.227 181.688 159.997C181.799 159.946 181.883 159.861 181.934 159.75Z" fill="white" fill-opacity="0.1"/>
<path d="M284.188 403.365C284.417 402.854 283.925 402.361 283.416 402.59C283.305 402.642 283.22 402.727 283.17 402.837C282.932 403.348 283.433 403.842 283.942 403.612C284.052 403.561 284.137 403.476 284.188 403.365Z" fill="white" fill-opacity="0.8"/>
<path d="M439.321 233.379C439.551 232.868 439.057 232.374 438.546 232.604C438.436 232.655 438.351 232.74 438.299 232.851C438.07 233.362 438.563 233.855 439.074 233.626C439.185 233.575 439.27 233.489 439.321 233.379Z" fill="white" fill-opacity="0.1"/>
<path d="M401.098 187.764C401.328 187.253 400.834 186.759 400.324 186.989C400.213 187.04 400.128 187.125 400.077 187.236C399.847 187.746 400.341 188.24 400.851 188.01C400.962 187.959 401.047 187.874 401.098 187.764Z" fill="white" fill-opacity="0.8"/>
<path d="M249.406 104.264C249.917 104.494 250.411 104.001 250.181 103.492C250.13 103.382 250.045 103.297 249.934 103.246C249.423 103.008 248.93 103.509 249.16 104.018C249.211 104.129 249.296 104.214 249.406 104.264Z" fill="white" fill-opacity="0.8"/>
<path d="M297.262 275.248C297.492 274.737 296.999 274.243 296.49 274.473C296.38 274.524 296.295 274.609 296.244 274.72C296.006 275.231 296.507 275.725 297.016 275.495C297.127 275.444 297.212 275.359 297.262 275.248Z" fill="white" fill-opacity="0.1"/>
<path d="M656.247 324.681C656.476 324.171 655.984 323.677 655.474 323.907C655.364 323.958 655.279 324.043 655.228 324.154C654.99 324.664 655.491 325.158 656.001 324.928C656.111 324.877 656.196 324.792 656.247 324.681Z" fill="white" fill-opacity="0.1"/>
<path d="M814.348 412.261C814.578 411.752 814.085 411.26 813.576 411.489C813.465 411.54 813.381 411.625 813.33 411.735C813.092 412.244 813.593 412.745 814.102 412.508C814.213 412.457 814.297 412.372 814.348 412.261Z" fill="white" fill-opacity="0.1"/>
<path d="M737.005 377.002C737.234 376.491 736.741 375.997 736.23 376.227C736.119 376.278 736.034 376.363 735.983 376.474C735.753 376.985 736.247 377.478 736.758 377.249C736.868 377.198 736.953 377.112 737.005 377.002Z" fill="white" fill-opacity="0.8"/>
<path d="M1081.03 218.855C1081.26 218.345 1080.76 217.851 1080.26 218.081C1080.15 218.132 1080.06 218.217 1080.01 218.328C1079.77 218.838 1080.27 219.332 1080.78 219.102C1080.89 219.051 1080.98 218.966 1081.03 218.855Z" fill="white" fill-opacity="0.8"/>
<path d="M431.544 37.8065C431.773 37.2957 431.281 36.802 430.771 37.0319C430.661 37.0829 430.576 37.1681 430.525 37.2787C430.287 37.7895 430.788 38.2832 431.298 38.0534C431.408 38.0023 431.493 37.9172 431.544 37.8065Z" fill="white" fill-opacity="0.1"/>
<path d="M1162.75 59.6834C1162.98 59.1727 1162.49 58.679 1161.98 58.9088C1161.87 58.9599 1161.78 59.045 1161.73 59.1557C1161.49 59.6664 1162 60.1601 1162.5 59.9303C1162.61 59.8792 1162.7 59.7941 1162.75 59.6834Z" fill="white" fill-opacity="0.1"/>
<path d="M1101.09 172.818C1101.32 172.307 1100.83 171.814 1100.32 172.044C1100.21 172.095 1100.13 172.18 1100.08 172.29C1099.84 172.801 1100.34 173.295 1100.85 173.065C1100.96 173.014 1101.04 172.929 1101.09 172.818Z" fill="white" fill-opacity="0.1"/>
<path d="M1320.27 25.8987C1319.75 25.661 1319.26 26.1619 1319.49 26.6713C1319.54 26.7817 1319.63 26.8666 1319.74 26.9175C1320.25 27.1467 1320.74 26.6543 1320.51 26.1449C1320.46 26.0346 1320.38 25.9497 1320.27 25.8987Z" fill="white" fill-opacity="0.1"/>
<path d="M573.95 256.949C574.18 256.438 573.686 255.945 573.175 256.174C573.065 256.226 572.979 256.311 572.928 256.421C572.699 256.932 573.192 257.426 573.703 257.196C573.814 257.145 573.899 257.06 573.95 256.949Z" fill="white" fill-opacity="0.1"/>
<path d="M1131.69 292.832C1131.93 292.321 1131.43 291.827 1130.92 292.057C1130.81 292.108 1130.73 292.193 1130.67 292.304C1130.45 292.815 1130.94 293.309 1131.45 293.079C1131.56 293.028 1131.64 292.943 1131.69 292.832Z" fill="white" fill-opacity="0.8"/>
<path d="M1.07874 2.78306C1.30858 2.27231 0.814851 1.77859 0.304101 2.00843C0.193439 2.0595 0.108333 2.14463 0.0572577 2.25529C-0.17258 2.76604 0.321122 3.25975 0.831872 3.02991C0.942534 2.97884 1.02767 2.89372 1.07874 2.78306Z" fill="white" fill-opacity="0.1"/>
<path d="M168.692 45.0565C168.922 44.5458 168.428 44.052 167.917 44.2819C167.807 44.3329 167.722 44.4181 167.671 44.5287C167.441 45.0395 167.934 45.5332 168.445 45.3034C168.556 45.2523 168.641 45.1672 168.692 45.0565Z" fill="white" fill-opacity="0.1"/>
<path d="M1269.33 407.715C1269.56 407.204 1269.06 406.71 1268.55 406.94C1268.44 406.991 1268.36 407.076 1268.31 407.187C1268.08 407.698 1268.57 408.191 1269.08 407.962C1269.19 407.91 1269.28 407.825 1269.33 407.715Z" fill="white" fill-opacity="0.1"/>
<path d="M909.536 14.6698C909.765 14.159 909.273 13.6653 908.763 13.8951C908.653 13.9462 908.568 14.0313 908.517 14.142C908.279 14.6527 908.78 15.1465 909.29 14.9166C909.4 14.8656 909.485 14.7804 909.536 14.6698Z" fill="white" fill-opacity="0.1"/>
<path d="M208.095 201.838C208.324 201.327 207.831 200.833 207.322 201.063C207.212 201.114 207.127 201.199 207.076 201.31C206.838 201.821 207.339 202.314 207.848 202.085C207.959 202.034 208.044 201.948 208.095 201.838Z" fill="white" fill-opacity="0.1"/>
<path d="M490.899 35.6502C491.129 35.1395 490.635 34.6458 490.124 34.8756C490.014 34.9267 489.929 35.0118 489.878 35.1225C489.648 35.6332 490.141 36.1269 490.652 35.8971C490.763 35.846 490.848 35.7609 490.899 35.6502Z" fill="white" fill-opacity="0.1"/>
<path d="M1017.73 294.504C1017.97 293.993 1017.47 293.499 1016.96 293.729C1016.85 293.78 1016.76 293.865 1016.71 293.976C1016.48 294.487 1016.97 294.98 1017.48 294.751C1017.59 294.7 1017.68 294.614 1017.73 294.504Z" fill="white" fill-opacity="0.1"/>
<path d="M1262.5 233.683C1262.74 233.173 1262.23 232.679 1261.73 232.909C1261.61 232.96 1261.53 233.045 1261.48 233.156C1261.25 233.666 1261.74 234.16 1262.25 233.93C1262.36 233.879 1262.45 233.794 1262.5 233.683Z" fill="white" fill-opacity="0.8"/>
<path d="M1276.23 168.295C1276.46 167.784 1275.97 167.29 1275.46 167.52C1275.35 167.571 1275.26 167.656 1275.21 167.767C1274.98 168.278 1275.47 168.771 1275.98 168.542C1276.09 168.491 1276.18 168.405 1276.23 168.295Z" fill="white" fill-opacity="0.1"/>
<path d="M410.674 127.904C410.445 127.393 410.938 126.9 411.449 127.13C411.56 127.181 411.645 127.266 411.696 127.376C411.926 127.887 411.432 128.381 410.921 128.151C410.811 128.1 410.726 128.015 410.674 127.904Z" fill="white" fill-opacity="0.1"/>
<path d="M773.518 362.215C773.288 361.704 773.782 361.21 774.293 361.44C774.403 361.491 774.489 361.576 774.54 361.687C774.77 362.198 774.276 362.691 773.765 362.462C773.654 362.41 773.569 362.325 773.518 362.215Z" fill="white" fill-opacity="0.1"/>
<path d="M343.565 345.127C343.336 344.616 343.828 344.122 344.337 344.352C344.448 344.403 344.533 344.488 344.584 344.599C344.821 345.11 344.32 345.603 343.811 345.374C343.701 345.323 343.616 345.237 343.565 345.127Z" fill="white" fill-opacity="0.1"/>
<path d="M666.6 364.49C666.37 363.979 666.864 363.486 667.375 363.715C667.486 363.767 667.571 363.852 667.622 363.962C667.852 364.473 667.358 364.967 666.847 364.737C666.736 364.686 666.651 364.601 666.6 364.49Z" fill="white" fill-opacity="0.1"/>
<path d="M813.327 380.412C813.097 379.902 813.59 379.41 814.099 379.639C814.21 379.69 814.294 379.775 814.345 379.885C814.583 380.395 814.082 380.896 813.573 380.658C813.462 380.607 813.378 380.522 813.327 380.412Z" fill="white" fill-opacity="0.1"/>
<path d="M295.686 247.406C295.457 246.895 295.949 246.402 296.459 246.631C296.569 246.683 296.654 246.768 296.705 246.878C296.942 247.389 296.442 247.883 295.932 247.653C295.822 247.602 295.737 247.517 295.686 247.406Z" fill="white" fill-opacity="0.1"/>
<path d="M231.207 62.2984C231.718 62.0607 232.212 62.5616 231.982 63.071C231.931 63.1814 231.846 63.2662 231.735 63.3172C231.224 63.5464 230.73 63.054 230.96 62.5446C231.011 62.4342 231.097 62.3494 231.207 62.2984Z" fill="white" fill-opacity="0.1"/>
<path d="M129.729 233.961C129.5 233.45 129.992 232.956 130.502 233.186C130.612 233.237 130.697 233.322 130.748 233.433C130.985 233.944 130.485 234.437 129.975 234.208C129.865 234.157 129.78 234.071 129.729 233.961Z" fill="white" fill-opacity="0.1"/>
<path d="M1176.74 279.702C1176.51 279.192 1177.01 278.692 1177.52 278.929C1177.63 278.98 1177.71 279.065 1177.76 279.175C1177.99 279.685 1177.5 280.177 1176.99 279.948C1176.88 279.897 1176.79 279.812 1176.74 279.702Z" fill="white" fill-opacity="0.1"/>
<path d="M1218.58 330.332C1218.34 329.821 1218.84 329.327 1219.35 329.557C1219.46 329.608 1219.54 329.693 1219.59 329.804C1219.82 330.315 1219.33 330.809 1218.82 330.579C1218.71 330.528 1218.63 330.443 1218.58 330.332Z" fill="white" fill-opacity="0.8"/>
<path d="M1321.76 81.2674C1321.53 80.7567 1322.03 80.263 1322.54 80.4928C1322.65 80.5439 1322.73 80.629 1322.78 80.7397C1323.02 81.2504 1322.52 81.7441 1322.01 81.5143C1321.9 81.4632 1321.82 81.3781 1321.76 81.2674Z" fill="white" fill-opacity="0.1"/>
<path d="M1294.96 49.0467C1294.72 48.536 1295.23 48.0423 1295.74 48.2721C1295.85 48.3232 1295.93 48.4083 1295.98 48.519C1296.21 49.0297 1295.72 49.5234 1295.21 49.2936C1295.1 49.2425 1295.01 49.1574 1294.96 49.0467Z" fill="white" fill-opacity="0.8"/>
<path d="M1215.99 202.974C1215.75 202.464 1216.25 201.97 1216.76 202.2C1216.87 202.251 1216.95 202.336 1217 202.447C1217.23 202.957 1216.74 203.451 1216.23 203.221C1216.12 203.17 1216.04 203.085 1215.99 202.974Z" fill="white" fill-opacity="0.1"/>
<path d="M212.717 324.68C212.488 324.169 212.981 323.675 213.492 323.905C213.603 323.956 213.688 324.041 213.739 324.152C213.969 324.663 213.475 325.156 212.964 324.926C212.854 324.875 212.768 324.79 212.717 324.68Z" fill="white" fill-opacity="0.1"/>
<path d="M73.9937 184.774C73.756 184.265 74.2569 183.764 74.7663 184.002C74.8766 184.052 74.9616 184.137 75.0125 184.248C75.2417 184.757 74.7493 185.25 74.2399 185.02C74.1296 184.969 74.0447 184.884 73.9937 184.774Z" fill="white" fill-opacity="0.1"/>
<path d="M113.798 161.367C113.561 160.856 114.062 160.363 114.571 160.592C114.681 160.643 114.766 160.729 114.817 160.839C115.046 161.35 114.554 161.844 114.045 161.614C113.934 161.563 113.849 161.478 113.798 161.367Z" fill="white" fill-opacity="0.8"/>
<path d="M313.038 187.221C312.808 186.71 313.301 186.216 313.81 186.446C313.92 186.497 314.005 186.582 314.056 186.693C314.294 187.204 313.793 187.697 313.284 187.467C313.173 187.416 313.089 187.331 313.038 187.221Z" fill="white" fill-opacity="0.1"/>
<path d="M26.2212 65.3436C25.9919 64.8329 26.4844 64.3391 26.9937 64.569C27.1041 64.62 27.189 64.7052 27.2399 64.8158C27.4776 65.3266 26.9768 65.8203 26.4674 65.5905C26.357 65.5394 26.2721 65.4543 26.2212 65.3436Z" fill="white" fill-opacity="0.1"/>
<path d="M1344.44 131.265C1344.21 130.755 1344.7 130.261 1345.21 130.491C1345.32 130.542 1345.4 130.627 1345.45 130.738C1345.69 131.248 1345.19 131.742 1344.68 131.512C1344.57 131.461 1344.49 131.376 1344.44 131.265Z" fill="white" fill-opacity="0.1"/>
<path d="M1395.72 92.017C1395.21 92.2468 1394.72 91.7531 1394.95 91.2423C1395 91.1317 1395.08 91.0466 1395.19 90.9955C1395.71 90.7656 1396.2 91.2594 1395.97 91.7701C1395.92 91.8808 1395.83 91.9659 1395.72 92.017Z" fill="white" fill-opacity="0.8"/>
<path d="M1368.04 55.352C1367.53 55.5897 1367.03 55.0888 1367.26 54.5794C1367.32 54.469 1367.4 54.3842 1367.51 54.3332C1368.02 54.104 1368.52 54.5964 1368.29 55.1058C1368.23 55.2161 1368.15 55.301 1368.04 55.352Z" fill="white" fill-opacity="0.1"/>
<path d="M239.225 169.885C238.996 169.374 239.488 168.88 239.998 169.11C240.108 169.161 240.193 169.246 240.244 169.357C240.482 169.868 239.981 170.361 239.471 170.131C239.361 170.08 239.276 169.995 239.225 169.885Z" fill="white" fill-opacity="0.1"/>
<path d="M515.713 16.4315C515.484 15.9208 515.977 15.427 516.486 15.6569C516.596 15.7079 516.681 15.7931 516.732 15.9037C516.97 16.4145 516.469 16.9082 515.96 16.6784C515.849 16.6273 515.764 16.5422 515.713 16.4315Z" fill="white" fill-opacity="0.1"/>
<path d="M623.01 16.7538C622.781 16.243 623.274 15.7493 623.785 15.9791C623.896 16.0302 623.981 16.1153 624.032 16.226C624.262 16.7367 623.768 17.2305 623.257 17.0006C623.147 16.9495 623.061 16.8644 623.01 16.7538Z" fill="white" fill-opacity="0.1"/>
<path d="M436.296 349.474C436.066 348.964 436.559 348.47 437.07 348.7C437.181 348.751 437.266 348.836 437.317 348.947C437.547 349.457 437.053 349.951 436.542 349.721C436.432 349.67 436.347 349.585 436.296 349.474Z" fill="white" fill-opacity="0.1"/>
<path d="M1210.87 355.371C1210.63 354.86 1211.14 354.366 1211.65 354.596C1211.76 354.647 1211.84 354.733 1211.89 354.843C1212.12 355.354 1211.63 355.848 1211.12 355.618C1211.01 355.567 1210.92 355.482 1210.87 355.371Z" fill="white" fill-opacity="0.8"/>
<path d="M630.202 377.002C629.972 376.491 630.466 375.997 630.976 376.227C631.087 376.278 631.172 376.363 631.223 376.474C631.453 376.985 630.959 377.478 630.449 377.249C630.338 377.198 630.253 377.112 630.202 377.002Z" fill="white" fill-opacity="0.1"/>
<path d="M707.546 409.988C707.316 409.477 707.809 408.984 708.32 409.214C708.431 409.265 708.516 409.35 708.567 409.46C708.797 409.971 708.303 410.465 707.792 410.235C707.682 410.184 707.597 410.099 707.546 409.988Z" fill="white" fill-opacity="0.8"/>
<path d="M845.839 332.371C845.609 331.86 846.102 331.366 846.613 331.596C846.724 331.647 846.809 331.733 846.86 331.843C847.09 332.354 846.596 332.848 846.085 332.618C845.975 332.567 845.89 332.482 845.839 332.371Z" fill="white" fill-opacity="0.8"/>
<path d="M571.053 382.691C570.824 382.181 571.317 381.687 571.828 381.917C571.939 381.968 572.024 382.053 572.075 382.163C572.305 382.674 571.811 383.168 571.3 382.938C571.19 382.887 571.104 382.802 571.053 382.691Z" fill="white" fill-opacity="0.8"/>
<path d="M306.03 33.4959C305.801 32.9852 306.293 32.4915 306.802 32.7213C306.913 32.7724 306.998 32.8575 307.049 32.9682C307.286 33.4789 306.785 33.9726 306.276 33.7428C306.166 33.6917 306.081 33.6066 306.03 33.4959Z" fill="white" fill-opacity="0.1"/>
<path d="M975.229 339.449C975 338.938 975.492 338.445 976.002 338.674C976.112 338.726 976.197 338.811 976.248 338.921C976.485 339.432 975.985 339.926 975.475 339.696C975.365 339.645 975.28 339.56 975.229 339.449Z" fill="white" fill-opacity="0.1"/>
<path d="M936.052 324.951C935.815 324.44 936.316 323.947 936.825 324.176C936.935 324.227 937.02 324.313 937.071 324.423C937.3 324.934 936.808 325.428 936.299 325.198C936.188 325.147 936.103 325.062 936.052 324.951Z" fill="white" fill-opacity="0.1"/>
<path d="M1135.23 119.942C1134.99 119.433 1135.49 118.932 1136 119.17C1136.11 119.22 1136.2 119.305 1136.25 119.416C1136.48 119.925 1135.98 120.417 1135.47 120.188C1135.36 120.137 1135.28 120.052 1135.23 119.942Z" fill="white" fill-opacity="0.1"/>
<path d="M1057.47 3.36117C1057.24 2.85044 1057.73 2.35672 1058.24 2.58655C1058.35 2.63763 1058.44 2.72276 1058.49 2.83342C1058.72 3.34415 1058.23 3.83787 1057.71 3.60804C1057.6 3.55697 1057.52 3.47183 1057.47 3.36117Z" fill="white" fill-opacity="0.8"/>
<path d="M997.596 18.7088C997.367 18.1981 997.859 17.7044 998.369 17.9342C998.479 17.9853 998.564 18.0704 998.615 18.1811C998.853 18.6918 998.352 19.1855 997.842 18.9557C997.732 18.9046 997.647 18.8195 997.596 18.7088Z" fill="white" fill-opacity="0.1"/>
<path d="M1079.31 339.086C1079.08 338.575 1079.58 338.081 1080.09 338.311C1080.2 338.362 1080.28 338.447 1080.33 338.558C1080.56 339.069 1080.07 339.562 1079.56 339.333C1079.45 339.282 1079.36 339.196 1079.31 339.086Z" fill="white" fill-opacity="0.1"/>
<path d="M1064.04 43.5721C1063.8 43.0614 1064.3 42.5677 1064.81 42.7975C1064.92 42.8486 1065.01 42.9337 1065.06 43.0444C1065.29 43.5551 1064.8 44.0488 1064.29 43.819C1064.18 43.7679 1064.09 43.6828 1064.04 43.5721Z" fill="white" fill-opacity="0.1"/>
<path d="M1181.35 214.648C1181.12 214.138 1181.61 213.644 1182.12 213.874C1182.23 213.925 1182.32 214.01 1182.37 214.121C1182.61 214.631 1182.11 215.125 1181.6 214.895C1181.49 214.844 1181.4 214.759 1181.35 214.648Z" fill="white" fill-opacity="0.1"/>
<path d="M1152.01 160.344C1151.78 159.833 1152.27 159.339 1152.79 159.569C1152.9 159.62 1152.98 159.705 1153.03 159.816C1153.26 160.327 1152.77 160.82 1152.26 160.59C1152.15 160.539 1152.06 160.454 1152.01 160.344Z" fill="white" fill-opacity="0.1"/>
<path d="M1280.82 290.556C1280.58 290.046 1281.08 289.552 1281.59 289.782C1281.7 289.833 1281.79 289.918 1281.84 290.029C1282.07 290.539 1281.57 291.033 1281.06 290.803C1280.95 290.752 1280.87 290.667 1280.82 290.556Z" fill="white" fill-opacity="0.1"/>
<path d="M1126.12 246.197C1125.89 245.686 1126.39 245.193 1126.9 245.422C1127.01 245.474 1127.09 245.559 1127.14 245.669C1127.38 246.18 1126.88 246.674 1126.37 246.444C1126.26 246.393 1126.17 246.308 1126.12 246.197Z" fill="white" fill-opacity="0.1"/>
<path d="M1315.74 254.931C1315.52 254.421 1316.01 253.927 1316.52 254.157C1316.63 254.208 1316.71 254.293 1316.76 254.404C1317 254.914 1316.5 255.408 1315.99 255.178C1315.88 255.127 1315.8 255.042 1315.74 254.931Z" fill="white" fill-opacity="0.1"/>
<path d="M234.198 255.019C233.969 254.509 234.461 254.015 234.97 254.245C235.081 254.296 235.166 254.381 235.216 254.492C235.454 255.002 234.953 255.496 234.444 255.266C234.334 255.215 234.249 255.13 234.198 255.019Z" fill="white" fill-opacity="0.1"/>
<path d="M1136.55 344.062C1136.32 343.552 1136.82 343.058 1137.33 343.288C1137.44 343.339 1137.52 343.424 1137.57 343.535C1137.8 344.045 1137.31 344.539 1136.8 344.309C1136.69 344.258 1136.6 344.173 1136.55 344.062Z" fill="white" fill-opacity="0.1"/>
<path d="M864.514 377.002C864.284 376.491 864.778 375.997 865.289 376.227C865.4 376.278 865.485 376.363 865.536 376.474C865.766 376.985 865.272 377.478 864.761 377.249C864.65 377.198 864.565 377.112 864.514 377.002Z" fill="white" fill-opacity="0.1"/>
<path d="M1119.13 398.816C1118.9 398.306 1119.4 397.812 1119.91 398.042C1120.02 398.093 1120.1 398.178 1120.15 398.288C1120.38 398.799 1119.89 399.293 1119.38 399.063C1119.27 399.012 1119.19 398.927 1119.13 398.816Z" fill="white" fill-opacity="0.8"/>
<path d="M971.482 55.1073C971.72 54.5965 971.219 54.1028 970.71 54.3326C970.599 54.3837 970.514 54.4688 970.463 54.5795C970.234 55.0902 970.727 55.584 971.236 55.3541C971.346 55.3031 971.431 55.2179 971.482 55.1073Z" fill="white" fill-opacity="0.8"/>
<path d="M1109.12 169.988C1109.35 169.477 1108.85 168.984 1108.34 169.214C1108.23 169.265 1108.15 169.35 1108.1 169.46C1107.87 169.971 1108.36 170.465 1108.87 170.235C1108.98 170.184 1109.07 170.099 1109.12 169.988Z" fill="white" fill-opacity="0.1"/>
<path d="M1058.36 92.6073C1058.13 92.0965 1058.63 91.6028 1059.14 91.8326C1059.25 91.8837 1059.33 91.9688 1059.38 92.0795C1059.61 92.5903 1059.12 93.084 1058.61 92.8541C1058.5 92.8031 1058.42 92.7179 1058.36 92.6073Z" fill="white" fill-opacity="0.8"/>
<path d="M1050.66 117.644C1050.42 117.134 1050.92 116.64 1051.43 116.87C1051.54 116.921 1051.63 117.006 1051.68 117.117C1051.91 117.627 1051.42 118.121 1050.91 117.891C1050.8 117.84 1050.71 117.755 1050.66 117.644Z" fill="white" fill-opacity="0.8"/>
<path d="M1120.61 52.8319C1120.37 52.3211 1120.87 51.8274 1121.38 52.0573C1121.49 52.1083 1121.58 52.1934 1121.63 52.3041C1121.86 52.8149 1121.37 53.3086 1120.86 53.0787C1120.75 53.0277 1120.66 52.9425 1120.61 52.8319Z" fill="white" fill-opacity="0.1"/>
<path d="M976.342 106.338C976.113 105.827 976.606 105.333 977.117 105.563C977.228 105.614 977.313 105.699 977.364 105.81C977.594 106.321 977.1 106.814 976.589 106.585C976.479 106.534 976.393 106.448 976.342 106.338Z" fill="white" fill-opacity="0.1"/>
<path d="M958.923 161.092C958.686 160.581 959.187 160.087 959.696 160.317C959.806 160.368 959.891 160.453 959.942 160.564C960.171 161.075 959.679 161.568 959.17 161.339C959.059 161.287 958.974 161.202 958.923 161.092Z" fill="white" fill-opacity="0.8"/>
<path d="M1055.81 268.959C1055.57 268.448 1056.07 267.954 1056.58 268.184C1056.69 268.235 1056.78 268.32 1056.83 268.431C1057.06 268.942 1056.57 269.436 1056.06 269.206C1055.95 269.155 1055.86 269.07 1055.81 268.959Z" fill="white" fill-opacity="0.1"/>
<path d="M1347.72 204.404C1347.49 203.893 1347.98 203.4 1348.49 203.63C1348.6 203.681 1348.69 203.766 1348.74 203.876C1348.97 204.387 1348.47 204.881 1347.96 204.651C1347.85 204.6 1347.77 204.515 1347.72 204.404Z" fill="white" fill-opacity="0.1"/>
<path d="M1439.7 24.641C1439.18 24.8787 1438.69 24.3779 1438.92 23.8685C1438.97 23.7581 1439.06 23.6732 1439.17 23.6223C1439.68 23.3931 1440.17 23.8855 1439.94 24.3948C1439.89 24.5052 1439.81 24.5901 1439.7 24.641Z" fill="white" fill-opacity="0.1"/>
<path d="M882.958 97.1932C883.187 96.6825 882.694 96.1887 882.183 96.4186C882.072 96.4697 881.987 96.5548 881.936 96.6654C881.706 97.1762 882.2 97.6699 882.711 97.4401C882.821 97.389 882.907 97.3039 882.958 97.1932Z" fill="white" fill-opacity="0.8"/>
<path d="M860.349 247.181C860.587 246.671 860.086 246.177 859.577 246.407C859.466 246.458 859.381 246.543 859.331 246.654C859.101 247.164 859.594 247.658 860.103 247.428C860.213 247.377 860.298 247.292 860.349 247.181Z" fill="white" fill-opacity="0.1"/>
<path d="M811.059 107.691C811.289 107.181 810.796 106.687 810.287 106.917C810.176 106.968 810.092 107.053 810.041 107.163C809.803 107.674 810.304 108.168 810.813 107.938C810.924 107.887 811.008 107.802 811.059 107.691Z" fill="white" fill-opacity="0.1"/>
<path d="M896.606 141.553C896.836 141.042 896.342 140.548 895.831 140.778C895.721 140.829 895.636 140.914 895.585 141.025C895.355 141.536 895.848 142.029 896.359 141.799C896.47 141.748 896.555 141.663 896.606 141.553Z" fill="white" fill-opacity="0.1"/>
<path d="M613.021 208.66C613.259 208.149 612.758 207.656 612.249 207.885C612.138 207.936 612.053 208.022 612.002 208.132C611.773 208.643 612.266 209.137 612.775 208.907C612.885 208.856 612.97 208.771 613.021 208.66Z" fill="white" fill-opacity="0.1"/>
<path d="M805.607 290.556C805.845 290.046 805.344 289.552 804.835 289.782C804.724 289.833 804.639 289.918 804.588 290.029C804.359 290.539 804.852 291.033 805.361 290.803C805.471 290.752 805.556 290.667 805.607 290.556Z" fill="white" fill-opacity="0.1"/>
<path d="M985.325 309.894C985.554 309.384 985.062 308.89 984.552 309.12C984.442 309.171 984.357 309.256 984.306 309.367C984.069 309.877 984.569 310.371 985.079 310.141C985.189 310.09 985.274 310.005 985.325 309.894Z" fill="white" fill-opacity="0.1"/>
<path d="M559.92 99.4666C560.157 98.9559 559.656 98.4622 559.147 98.692C559.037 98.7431 558.952 98.8282 558.901 98.9389C558.672 99.4496 559.164 99.9433 559.673 99.7135C559.784 99.6624 559.869 99.5773 559.92 99.4666Z" fill="white" fill-opacity="0.8"/>
<path d="M554.22 251.91C554.449 251.399 553.956 250.906 553.447 251.135C553.337 251.186 553.252 251.272 553.201 251.382C552.963 251.893 553.464 252.387 553.973 252.157C554.084 252.106 554.169 252.021 554.22 251.91Z" fill="white" fill-opacity="0.1"/>
<path d="M761.278 118.162C761.507 117.652 761.015 117.16 760.506 117.389C760.395 117.44 760.31 117.525 760.259 117.635C760.022 118.145 760.523 118.646 761.032 118.408C761.142 118.357 761.227 118.272 761.278 118.162Z" fill="white" fill-opacity="0.1"/>
<path d="M682.88 325.236C683.109 324.725 682.616 324.232 682.107 324.462C681.997 324.513 681.912 324.598 681.861 324.708C681.623 325.219 682.124 325.713 682.633 325.483C682.744 325.432 682.829 325.347 682.88 325.236Z" fill="white" fill-opacity="0.1"/>
<path d="M902.047 178.317C901.536 178.079 901.042 178.58 901.272 179.089C901.323 179.2 901.408 179.285 901.519 179.335C902.03 179.565 902.523 179.072 902.294 178.563C902.243 178.453 902.157 178.368 902.047 178.317Z" fill="white" fill-opacity="0.1"/>
<path d="M491.317 167.088C491.546 166.577 491.054 166.083 490.545 166.313C490.434 166.364 490.349 166.449 490.298 166.56C490.061 167.071 490.562 167.564 491.071 167.335C491.181 167.284 491.266 167.198 491.317 167.088Z" fill="white" fill-opacity="0.1"/>
<path d="M537.256 133.168C537.493 132.657 536.992 132.163 536.483 132.393C536.373 132.444 536.288 132.529 536.237 132.64C536.008 133.151 536.5 133.645 537.009 133.415C537.12 133.364 537.205 133.278 537.256 133.168Z" fill="white" fill-opacity="0.1"/>
<path d="M858.012 320.713C858.242 320.202 857.748 319.708 857.238 319.938C857.127 319.989 857.042 320.074 856.991 320.185C856.761 320.696 857.255 321.189 857.765 320.96C857.876 320.909 857.961 320.823 858.012 320.713Z" fill="white" fill-opacity="0.1"/>
<path d="M627.474 125.82C627.236 125.309 627.737 124.816 628.247 125.046C628.357 125.097 628.442 125.182 628.493 125.292C628.722 125.803 628.23 126.297 627.72 126.067C627.61 126.016 627.525 125.931 627.474 125.82Z" fill="white" fill-opacity="0.8"/>
<path d="M903.545 233.683C903.316 233.173 903.809 232.679 904.318 232.909C904.428 232.96 904.513 233.045 904.564 233.156C904.802 233.666 904.301 234.16 903.792 233.93C903.681 233.879 903.596 233.794 903.545 233.683Z" fill="white" fill-opacity="0.1"/>
<path d="M876.74 201.463C876.502 200.952 877.003 200.458 877.512 200.688C877.623 200.739 877.708 200.824 877.759 200.935C877.988 201.446 877.495 201.939 876.986 201.71C876.876 201.659 876.791 201.573 876.74 201.463Z" fill="white" fill-opacity="0.8"/>
<path d="M926.213 283.683C925.984 283.173 926.477 282.679 926.986 282.909C927.096 282.96 927.181 283.045 927.232 283.156C927.47 283.666 926.969 284.16 926.46 283.93C926.349 283.879 926.264 283.794 926.213 283.683Z" fill="white" fill-opacity="0.1"/>
<path d="M977.504 244.433C976.993 244.663 976.499 244.169 976.729 243.658C976.78 243.548 976.865 243.463 976.976 243.411C977.487 243.182 977.98 243.675 977.751 244.186C977.7 244.297 977.614 244.382 977.504 244.433Z" fill="white" fill-opacity="0.8"/>
<path d="M949.816 207.768C949.306 208.006 948.812 207.505 949.042 206.995C949.093 206.885 949.178 206.8 949.288 206.749C949.799 206.52 950.293 207.012 950.063 207.522C950.012 207.632 949.927 207.717 949.816 207.768Z" fill="white" fill-opacity="0.1"/>
<path d="M504.108 111.33C503.878 110.819 504.372 110.325 504.883 110.555C504.993 110.606 505.078 110.691 505.13 110.802C505.359 111.313 504.866 111.807 504.355 111.577C504.244 111.526 504.159 111.441 504.108 111.33Z" fill="white" fill-opacity="0.1"/>
<path d="M717.009 272.358C716.772 271.849 717.273 271.348 717.782 271.586C717.892 271.636 717.977 271.721 718.028 271.832C718.257 272.341 717.765 272.834 717.256 272.604C717.145 272.553 717.06 272.468 717.009 272.358Z" fill="white" fill-opacity="0.1"/>
<path d="M639.249 155.779C639.019 155.268 639.513 154.775 640.023 155.005C640.134 155.056 640.219 155.141 640.27 155.251C640.5 155.762 640.006 156.256 639.496 156.026C639.385 155.975 639.3 155.89 639.249 155.779Z" fill="white" fill-opacity="0.8"/>
<path d="M579.374 171.127C579.144 170.616 579.637 170.122 580.146 170.352C580.256 170.403 580.341 170.488 580.392 170.599C580.63 171.11 580.129 171.603 579.62 171.374C579.509 171.323 579.424 171.237 579.374 171.127Z" fill="white" fill-opacity="0.1"/>
<path d="M645.822 195.988C645.584 195.477 646.085 194.984 646.594 195.214C646.705 195.265 646.79 195.35 646.841 195.46C647.07 195.971 646.577 196.465 646.068 196.235C645.958 196.184 645.873 196.099 645.822 195.988Z" fill="white" fill-opacity="0.1"/>
<path d="M519.87 191.597C519.64 191.088 520.133 190.595 520.642 190.825C520.753 190.876 520.837 190.961 520.888 191.071C521.126 191.58 520.625 192.081 520.116 191.843C520.005 191.793 519.921 191.708 519.87 191.597Z" fill="white" fill-opacity="0.1"/>
<path d="M733.792 312.762C733.562 312.251 734.056 311.757 734.566 311.987C734.677 312.038 734.762 312.123 734.813 312.234C735.043 312.745 734.549 313.238 734.038 313.008C733.928 312.957 733.843 312.872 733.792 312.762Z" fill="white" fill-opacity="0.1"/>
<path d="M1021.48 177.055C1020.97 177.293 1020.47 176.792 1020.7 176.283C1020.75 176.172 1020.84 176.087 1020.95 176.036C1021.46 175.807 1021.95 176.3 1021.72 176.809C1021.67 176.919 1021.59 177.004 1021.48 177.055Z" fill="white" fill-opacity="0.1"/>
<path d="M259.4 215.486C259.162 214.975 259.663 214.482 260.173 214.712C260.283 214.763 260.368 214.848 260.419 214.958C260.648 215.469 260.156 215.963 259.646 215.733C259.536 215.682 259.451 215.597 259.4 215.486Z" fill="white" fill-opacity="0.1"/>
<path d="M492.572 381.551C492.334 381.04 492.835 380.546 493.344 380.776C493.455 380.827 493.54 380.912 493.591 381.023C493.82 381.534 493.327 382.027 492.818 381.797C492.708 381.746 492.623 381.661 492.572 381.551Z" fill="white" fill-opacity="0.1"/>
<path d="M382.244 375.865C382.006 375.354 382.507 374.861 383.016 375.09C383.127 375.142 383.212 375.227 383.262 375.337C383.492 375.848 382.999 376.342 382.49 376.112C382.38 376.061 382.295 375.976 382.244 375.865Z" fill="white" fill-opacity="0.8"/>
<path d="M488.021 339.467C487.783 338.956 488.284 338.462 488.794 338.692C488.904 338.743 488.989 338.828 489.04 338.939C489.269 339.45 488.777 339.943 488.267 339.714C488.157 339.662 488.072 339.577 488.021 339.467Z" fill="white" fill-opacity="0.1"/>
<path d="M355.127 248.642C354.889 248.132 355.39 247.638 355.899 247.868C356.009 247.919 356.094 248.004 356.145 248.115C356.375 248.625 355.882 249.119 355.373 248.889C355.262 248.838 355.177 248.753 355.127 248.642Z" fill="white" fill-opacity="0.1"/>
<path d="M486.744 246.273C486.506 245.763 487.007 245.269 487.516 245.499C487.627 245.55 487.712 245.635 487.762 245.746C487.992 246.256 487.499 246.75 486.99 246.52C486.88 246.469 486.795 246.384 486.744 246.273Z" fill="white" fill-opacity="0.1"/>
<path d="M410.143 314.89C409.913 314.38 410.407 313.886 410.918 314.116C411.028 314.167 411.114 314.252 411.165 314.363C411.395 314.873 410.901 315.367 410.39 315.137C410.279 315.086 410.194 315.001 410.143 314.89Z" fill="white" fill-opacity="0.1"/>
<path d="M788.188 86.9549C788.417 86.4442 787.925 85.9505 787.416 86.1803C787.305 86.2314 787.22 86.3165 787.17 86.4272C786.932 86.9379 787.433 87.4316 787.942 87.2018C788.052 87.1507 788.137 87.0656 788.188 86.9549Z" fill="white" fill-opacity="0.8"/>
<path d="M680.249 33.4686C680.019 32.9579 680.512 32.4641 681.021 32.694C681.131 32.745 681.216 32.8302 681.267 32.9408C681.505 33.4516 681.004 33.9453 680.495 33.7155C680.384 33.6644 680.299 33.5793 680.249 33.4686Z" fill="white" fill-opacity="0.1"/>
<path d="M772.979 37.8143C772.749 37.3036 773.243 36.8098 773.754 37.0397C773.864 37.0908 773.95 37.1759 774.001 37.2865C774.23 37.7973 773.737 38.291 773.226 38.0612C773.115 38.0101 773.03 37.925 772.979 37.8143Z" fill="white" fill-opacity="0.1"/>
<path d="M829.255 69.8924C829.018 69.3817 829.519 68.888 830.028 69.1178C830.138 69.1689 830.223 69.254 830.274 69.3647C830.503 69.8754 830.011 70.3691 829.502 70.1393C829.391 70.0882 829.306 70.0031 829.255 69.8924Z" fill="white" fill-opacity="0.1"/>
<path d="M718.923 64.2069C718.686 63.6961 719.187 63.2024 719.696 63.4323C719.806 63.4833 719.891 63.5685 719.942 63.6791C720.171 64.1899 719.679 64.6836 719.17 64.4537C719.059 64.4027 718.974 64.3175 718.923 64.2069Z" fill="white" fill-opacity="0.8"/>
<path d="M824.705 27.8065C824.467 27.2957 824.968 26.802 825.477 27.0319C825.588 27.0829 825.672 27.1681 825.723 27.2787C825.953 27.7895 825.46 28.2832 824.951 28.0534C824.841 28.0023 824.756 27.9172 824.705 27.8065Z" fill="white" fill-opacity="0.1"/>
<path d="M746.827 3.23228C746.597 2.72153 747.091 2.22781 747.601 2.45765C747.712 2.50872 747.797 2.59384 747.848 2.70451C748.078 3.21525 747.584 3.70897 747.074 3.47913C746.963 3.42806 746.878 3.34294 746.827 3.23228Z" fill="white" fill-opacity="0.1"/>
<path d="M226.71 294.576C226.48 294.065 226.973 293.572 227.484 293.801C227.595 293.852 227.68 293.938 227.731 294.048C227.961 294.559 227.467 295.053 226.956 294.823C226.846 294.772 226.761 294.687 226.71 294.576Z" fill="white" fill-opacity="0.8"/>
<path d="M94.4635 25.5331C94.2337 25.0223 94.7274 24.5286 95.2381 24.7584C95.3488 24.8095 95.4339 24.8946 95.485 25.0053C95.7148 25.516 95.2211 26.0097 94.7104 25.7799C94.5997 25.7288 94.5146 25.6437 94.4635 25.5331Z" fill="white" fill-opacity="0.1"/>
<path d="M436.837 0.509622C436.6 -0.00112289 437.101 -0.494846 437.61 -0.265011C437.72 -0.213936 437.805 -0.128818 437.856 -0.0181564C438.085 0.492588 437.593 0.986311 437.084 0.756476C436.973 0.705402 436.888 0.620283 436.837 0.509622Z" fill="white" fill-opacity="0.1"/>
<path d="M144.514 101.74C144.284 101.229 144.778 100.736 145.289 100.965C145.4 101.017 145.485 101.102 145.536 101.212C145.766 101.723 145.272 102.217 144.761 101.987C144.65 101.936 144.565 101.851 144.514 101.74Z" fill="white" fill-opacity="0.1"/>
<path d="M85.0454 87.453C84.8162 86.9422 85.3086 86.4485 85.818 86.6783C85.9283 86.7294 86.0132 86.8145 86.0641 86.9252C86.3019 87.4359 85.801 87.9297 85.2916 87.6998C85.1812 87.6488 85.0963 87.5636 85.0454 87.453Z" fill="white" fill-opacity="0.1"/>
</svg>
